<svg xmlns="http://www.w3.org/2000/svg" viewBox="0 0 500 500" role="img" aria-label="Geoxs Biotech mark">
  <defs>
    <linearGradient id="geoxsGrad" x1="75" y1="350" x2="335" y2="224" gradientUnits="userSpaceOnUse">
      <stop offset="0" stop-color="#13A0A9"/>
      <stop offset="1" stop-color="#12823A"/>
    </linearGradient>
  </defs>
  <g fill="none" stroke="url(#geoxsGrad)" stroke-linecap="round">
    <line x1="85" y1="269.5" x2="89.8" y2="301.3" stroke-width="6"/>
    <line x1="89.8" y1="301.3" x2="85" y2="338.9" stroke-width="6"/>
    <line x1="89.8" y1="301.3" x2="114.3" y2="326.7" stroke-width="6"/>
    <line x1="114.3" y1="326.7" x2="127.4" y2="327.1" stroke-width="6"/>
    <line x1="152.7" y1="315.2" x2="173.3" y2="288.6" stroke-width="6"/>
    <line x1="173.3" y1="288.6" x2="211.4" y2="248" stroke-width="6"/>
    <line x1="173.3" y1="288.6" x2="200.7" y2="319.8" stroke-width="6"/>
    <line x1="211.4" y1="248" x2="192.9" y2="217.3" stroke-width="6"/>
    <line x1="192.9" y1="217.3" x2="199.8" y2="187.4" stroke-width="6"/>
    <line x1="225.5" y1="178.6" x2="245.6" y2="194.8" stroke-width="6"/>
    <line x1="245.6" y1="194.8" x2="262.4" y2="180.9" stroke-width="6"/>
    <line x1="287.6" y1="171.7" x2="302.7" y2="171.4" stroke-width="6"/>
    <line x1="200.7" y1="319.8" x2="220" y2="328.7" stroke-width="6"/>
    <line x1="257.2" y1="318.1" x2="260.4" y2="313.2" stroke-width="6"/>
    <line x1="229.5" y1="360.9" x2="228.1" y2="363.1" stroke-width="6"/>
    <line x1="261.4" y1="357.2" x2="266.1" y2="361.8" stroke-width="6"/>
    <line x1="272.2" y1="293.9" x2="280" y2="280" stroke-width="6" stroke="#1a858f"/>
    <line x1="280" y1="280" x2="275.9" y2="266.1" stroke-width="6" stroke="#1a858f"/>
    <line x1="280" y1="280" x2="303.2" y2="278.8" stroke-width="6" stroke="#1a858f"/>
    <line x1="303.2" y1="278.8" x2="329.1" y2="299.8" stroke-width="6" stroke="#1a858f"/>
    <line x1="303.2" y1="278.8" x2="310.1" y2="247.2" stroke-width="6" stroke="#1a858f"/>
    <line x1="302.7" y1="171.4" x2="314.7" y2="143.3" stroke-width="6"/>
    <line x1="302.7" y1="171.4" x2="311.8" y2="199.1" stroke-width="6"/>
    <line x1="369" y1="225.2" x2="392.6" y2="221.2" stroke-width="6" stroke="#1a858f"/>
    <line x1="392.6" y1="221.2" x2="400.9" y2="203.7" stroke-width="6" stroke="#1a858f"/>
    <line x1="400.9" y1="203.7" x2="394.7" y2="188.3" stroke-width="6" stroke="#1a858f"/>
    <line x1="400.9" y1="203.7" x2="418.7" y2="200.7" stroke-width="6" stroke="#1a858f"/>
    <line x1="392.6" y1="221.2" x2="403.4" y2="243.2" stroke-width="6" stroke="#1a858f"/>
    <line x1="403.4" y1="243.2" x2="396.7" y2="253.7" stroke-width="6" stroke="#1a858f"/>
    <line x1="403.4" y1="243.2" x2="418.2" y2="243.4" stroke-width="6" stroke="#1a858f"/>
  </g>
  <polygon points="331.00,104.00 350.90,115.50 350.90,138.50 331.00,150.00 311.10,138.50 311.10,115.50" fill="none" stroke="url(#geoxsGrad)" stroke-width="7" stroke-linejoin="round"/>
  <polygon points="336.19,190.02 359.87,200.81 368.98,225.19 358.19,248.87 333.81,257.98 310.13,247.19 301.02,222.81 311.81,199.13" fill="none" stroke="#1a858f" stroke-width="7" stroke-linejoin="round"/>
  <polygon points="335.80,201.01 351.82,208.31 357.99,224.80 350.69,240.82 334.20,246.99 318.18,239.69 312.01,223.20 319.31,207.18" fill="none" stroke="#1a858f" stroke-width="5" stroke-linejoin="round"/>
  <g fill="url(#geoxsGrad)">
    <circle cx="85" cy="269.5" r="15.1"/>
    <circle cx="89.8" cy="301.3" r="9.3"/>
    <circle cx="85" cy="338.9" r="10.7"/>
    <circle cx="114.3" cy="326.7" r="10.3"/>
    <circle cx="173.3" cy="288.6" r="26.5"/>
    <circle cx="200.7" cy="319.8" r="9.8"/>
    <circle cx="266.1" cy="361.8" r="4.9"/>
    <circle cx="303.2" cy="278.8" r="7" fill="#1a858f"/>
    <circle cx="211.4" cy="248" r="16.1"/>
    <circle cx="192.9" cy="217.3" r="10.3"/>
    <circle cx="245.6" cy="194.8" r="15.1"/>
    <circle cx="302.7" cy="171.4" r="7.5"/>
    <circle cx="275.9" cy="266.1" r="6.1" fill="#1a858f"/>
    <circle cx="329.1" cy="299.8" r="5.4" fill="#1a858f"/>
    <circle cx="392.6" cy="221.2" r="6.4" fill="#1a858f"/>
    <circle cx="394.7" cy="188.3" r="5.9" fill="#1a858f"/>
    <circle cx="418.7" cy="200.7" r="5.9" fill="#1a858f"/>
    <circle cx="396.7" cy="253.7" r="5.9" fill="#1a858f"/>
    <circle cx="418.2" cy="243.4" r="5.9" fill="#1a858f"/>
  </g>
  <g fill="none" stroke="url(#geoxsGrad)">
    <circle cx="143.1" cy="327.6" r="12.7" stroke-width="6.00"/>
    <circle cx="243.2" cy="339.4" r="21.5" stroke-width="8.00"/>
    <circle cx="221.7" cy="373" r="8.8" stroke-width="6.00"/>
    <circle cx="266.6" cy="303.7" r="8.8" stroke-width="5.00"/>
    <circle cx="205.6" cy="162.6" r="21.5" stroke-width="8.00"/>
    <circle cx="273.4" cy="171.9" r="11.2" stroke-width="6.00"/>
  </g>
</svg>
